<svg xmlns="http://www.w3.org/2000/svg" xmlns:xlink="http://www.w3.org/1999/xlink" width="500" zoomAndPan="magnify" viewBox="0 0 375 374.999991" height="500" preserveAspectRatio="xMidYMid meet" version="1.0"><defs><g/><clipPath id="bd0ce31264"><path d="M 114.421875 79.773438 L 260.671875 79.773438 L 260.671875 191 L 114.421875 191 Z M 114.421875 79.773438 " clip-rule="nonzero"/></clipPath><clipPath id="0513d840fd"><path d="M 145 165 L 260 165 L 260 226.023438 L 145 226.023438 Z M 145 165 " clip-rule="nonzero"/></clipPath></defs><g clip-path="url(#bd0ce31264)"><path fill="#00adef" d="M 136.09375 139.855469 L 128.386719 121.429688 L 132.71875 120.3125 L 147.640625 135.339844 C 156.566406 132.058594 166.878906 128.648438 175.707031 125.933594 L 155.238281 94.554688 L 164.648438 92.125 L 194.90625 120.648438 C 210.253906 117.261719 222.636719 117.207031 223.554688 120.765625 C 224.476562 124.320312 213.613281 130.273438 198.546875 134.742188 L 188.085938 167.765625 L 178.675781 170.195312 L 179.1875 139.414062 C 170.148438 141.316406 159.476562 143.320312 150.078125 144.777344 L 142.925781 160.195312 L 138.59375 161.3125 L 137.789062 146.417969 C 131.003906 147.121094 126.390625 147.125 126.085938 145.941406 C 125.777344 144.757812 129.816406 142.523438 136.09375 139.855469 Z M 119.738281 149.515625 C 116.527344 156.691406 115.796875 163.675781 118.054688 169.957031 C 119.910156 175.109375 123.4375 179.640625 128.773438 182.628906 C 143.703125 190.980469 171.1875 189.238281 199.074219 178.878906 C 209.917969 174.847656 219.734375 169.8125 228.074219 164.242188 C 220.058594 170.515625 210.472656 176.347656 199.746094 181.21875 C 190.351562 185.484375 180.980469 188.605469 172.085938 190.597656 C 185.96875 189.734375 201.398438 186.554688 217.074219 180.917969 C 233.976562 174.839844 248.832031 166.742188 260.511719 157.804688 C 260.617188 156.183594 260.671875 154.546875 260.671875 152.898438 C 260.671875 112.511719 227.933594 79.773438 187.546875 79.773438 C 147.160156 79.773438 114.421875 112.511719 114.421875 152.898438 C 114.421875 153.71875 114.4375 154.535156 114.464844 155.351562 C 116.0625 153.394531 117.824219 151.449219 119.738281 149.515625 " fill-opacity="1" fill-rule="nonzero"/></g><g clip-path="url(#0513d840fd)"><path fill="#3871c1" d="M 203.847656 199.257812 C 189.589844 204.382812 175.535156 207.476562 162.664062 208.644531 C 174.542969 209.273438 187.636719 208.414062 201.183594 205.863281 C 214.425781 203.371094 226.679688 199.527344 237.347656 194.773438 C 226.914062 200.394531 214.765625 205.203125 201.496094 208.6875 C 182.820312 213.585938 162.425781 214.945312 145.097656 212.449219 C 157.066406 220.996094 171.71875 226.023438 187.546875 226.023438 C 223.765625 226.023438 253.835938 199.691406 259.652344 165.125 C 247.125 178.304688 227.480469 190.757812 203.847656 199.257812 " fill-opacity="1" fill-rule="nonzero"/></g><g fill="#010101" fill-opacity="1"><g transform="translate(92.344092, 265.932448)"><g><path d="M 19.5 -18.578125 L 13.125 -18.578125 L 13.125 0 L 7.59375 0 L 7.59375 -18.578125 L 1.234375 -18.578125 L 1.234375 -23.3125 L 19.5 -23.3125 Z M 19.5 -18.578125 "/></g></g></g><g fill="#010101" fill-opacity="1"><g transform="translate(113.069535, 265.932448)"><g><path d="M 10.578125 -8.421875 L 8 -8.421875 L 8 0 L 2.453125 0 L 2.453125 -23.3125 L 11.90625 -23.3125 C 17.820312 -23.3125 20.78125 -20.820312 20.78125 -15.84375 C 20.78125 -12.289062 19.234375 -10.015625 16.140625 -9.015625 L 21.703125 0 L 15.5625 0 Z M 8 -13.09375 L 11.90625 -13.09375 C 14.09375 -13.09375 15.1875 -14.007812 15.1875 -15.84375 C 15.1875 -16.800781 14.921875 -17.503906 14.390625 -17.953125 C 13.859375 -18.410156 13.03125 -18.640625 11.90625 -18.640625 L 8 -18.640625 Z M 8 -13.09375 "/></g></g></g><g fill="#010101" fill-opacity="1"><g transform="translate(135.855224, 265.932448)"><g><path d="M 17.09375 -4.734375 L 8.09375 -4.734375 L 6.453125 0 L 0.921875 0 L 9.078125 -23.578125 L 16.078125 -23.578125 L 24.265625 0 L 18.734375 0 Z M 15.5 -9.46875 L 12.578125 -17.953125 L 9.6875 -9.46875 Z M 15.5 -9.46875 "/></g></g></g><g fill="#010101" fill-opacity="1"><g transform="translate(161.039399, 265.932448)"><g><path d="M 24.265625 -23.3125 L 16.109375 0.28125 L 9.109375 0.28125 L 0.921875 -23.3125 L 6.609375 -23.3125 L 12.609375 -5.4375 L 18.578125 -23.3125 Z M 24.265625 -23.3125 "/></g></g></g><g fill="#010101" fill-opacity="1"><g transform="translate(186.223575, 265.932448)"><g><path d="M 18.015625 -4.421875 L 18.015625 0 L 2.453125 0 L 2.453125 -23.3125 L 17.859375 -23.3125 L 17.859375 -18.875 L 8 -18.875 L 8 -13.9375 L 16.328125 -13.9375 L 16.328125 -9.5 L 8 -9.5 L 8 -4.421875 Z M 18.015625 -4.421875 "/></g></g></g><g fill="#010101" fill-opacity="1"><g transform="translate(206.088022, 265.932448)"><g><path d="M 16.484375 -4.734375 L 16.484375 0 L 2.453125 0 L 2.453125 -23.3125 L 8 -23.3125 L 8 -4.734375 Z M 16.484375 -4.734375 "/></g></g></g><g fill="#010101" fill-opacity="1"><g transform="translate(223.799973, 265.932448)"><g><path d="M 2.453125 -23.3125 L 8 -23.3125 L 8 0 L 2.453125 0 Z M 2.453125 -23.3125 "/></g></g></g><g fill="#010101" fill-opacity="1"><g transform="translate(234.25494, 265.932448)"><g><path d="M 22.71875 -23.3125 L 22.71875 0 L 16.359375 0 L 8 -14.328125 L 8 0 L 2.453125 0 L 2.453125 -23.3125 L 8.828125 -23.3125 L 17.1875 -8.984375 L 17.1875 -23.3125 Z M 22.71875 -23.3125 "/></g></g></g><g fill="#010101" fill-opacity="1"><g transform="translate(259.439115, 265.932448)"><g><path d="M 21.375 -14.234375 L 21.375 -1.625 C 20.125 -0.925781 18.785156 -0.394531 17.359375 -0.03125 C 15.929688 0.332031 14.59375 0.515625 13.34375 0.515625 C 10.695312 0.515625 8.453125 0.0078125 6.609375 -1 C 4.765625 -2.007812 3.378906 -3.425781 2.453125 -5.25 C 1.535156 -7.082031 1.078125 -9.207031 1.078125 -11.625 C 1.078125 -13.914062 1.519531 -15.972656 2.40625 -17.796875 C 3.300781 -19.628906 4.664062 -21.078125 6.5 -22.140625 C 8.332031 -23.203125 10.613281 -23.734375 13.34375 -23.734375 C 14.695312 -23.734375 15.835938 -23.601562 16.765625 -23.34375 C 17.703125 -23.09375 18.753906 -22.710938 19.921875 -22.203125 L 19.921875 -17.3125 C 18.878906 -17.882812 17.847656 -18.316406 16.828125 -18.609375 C 15.816406 -18.910156 14.65625 -19.0625 13.34375 -19.0625 C 11.96875 -19.0625 10.769531 -18.75 9.75 -18.125 C 8.738281 -17.5 7.972656 -16.628906 7.453125 -15.515625 C 6.929688 -14.398438 6.671875 -13.132812 6.671875 -11.71875 C 6.671875 -9.414062 7.253906 -7.578125 8.421875 -6.203125 C 9.585938 -4.835938 11.226562 -4.15625 13.34375 -4.15625 C 14.289062 -4.15625 15.160156 -4.296875 15.953125 -4.578125 L 15.953125 -9.5 L 10.140625 -9.5 L 10.140625 -14.234375 Z M 21.375 -14.234375 "/></g></g></g><g fill="#010101" fill-opacity="1"><g transform="translate(113.260698, 287.95044)"><g><path d="M 9 -3.796875 L 3.578125 -3.796875 L 2.1875 0 L 0.46875 0 L 5.359375 -13.1875 L 7.21875 -13.1875 L 12.140625 0 L 10.421875 0 Z M 8.4375 -5.296875 L 6.296875 -11.109375 L 4.140625 -5.296875 Z M 8.4375 -5.296875 "/></g></g></g><g fill="#010101" fill-opacity="1"><g transform="translate(130.544466, 287.95044)"><g><path d="M 6.171875 -13.03125 C 8.316406 -13.03125 9.9375 -12.476562 11.03125 -11.375 C 12.125 -10.269531 12.671875 -8.644531 12.671875 -6.5 C 12.671875 -4.34375 12.125 -2.71875 11.03125 -1.625 C 9.945312 -0.539062 8.328125 0 6.171875 0 L 1.84375 0 L 1.84375 -13.03125 Z M 10.953125 -6.546875 C 10.953125 -8.265625 10.550781 -9.53125 9.75 -10.34375 C 8.945312 -11.15625 7.753906 -11.5625 6.171875 -11.5625 L 3.5 -11.5625 L 3.5 -1.46875 L 6.171875 -1.46875 C 7.765625 -1.46875 8.957031 -1.875 9.75 -2.6875 C 10.550781 -3.5 10.953125 -4.785156 10.953125 -6.546875 Z M 10.953125 -6.546875 "/></g></g></g><g fill="#010101" fill-opacity="1"><g transform="translate(148.927735, 287.95044)"><g><path d="M 12.234375 -13.03125 L 7.34375 0.15625 L 5.484375 0.15625 L 0.5625 -13.03125 L 2.328125 -13.03125 L 6.40625 -1.921875 L 10.5 -13.03125 Z M 12.234375 -13.03125 "/></g></g></g><g fill="#010101" fill-opacity="1"><g transform="translate(166.452021, 287.95044)"><g><path d="M 9.8125 -1.4375 L 9.8125 0 L 1.84375 0 L 1.84375 -13.03125 L 9.734375 -13.03125 L 9.734375 -11.578125 L 3.5 -11.578125 L 3.5 -7.265625 L 8.875 -7.265625 L 8.875 -5.828125 L 3.5 -5.828125 L 3.5 -1.4375 Z M 9.8125 -1.4375 "/></g></g></g><g fill="#010101" fill-opacity="1"><g transform="translate(182.000638, 287.95044)"><g><path d="M 11.734375 -13.03125 L 11.734375 0 L 9.921875 0 L 3.5 -10.234375 L 3.5 0 L 1.84375 0 L 1.84375 -13.03125 L 3.640625 -13.03125 L 10.078125 -2.796875 L 10.078125 -13.03125 Z M 11.734375 -13.03125 "/></g></g></g><g fill="#010101" fill-opacity="1"><g transform="translate(200.280834, 287.95044)"><g><path d="M 10.203125 -11.53125 L 6.296875 -11.53125 L 6.296875 0 L 4.609375 0 L 4.609375 -11.53125 L 0.6875 -11.53125 L 0.6875 -13.03125 L 10.203125 -13.03125 Z M 10.203125 -11.53125 "/></g></g></g><g fill="#010101" fill-opacity="1"><g transform="translate(215.880995, 287.95044)"><g><path d="M 6.734375 0.296875 C 5.078125 0.296875 3.832031 -0.125 3 -0.96875 C 2.175781 -1.8125 1.765625 -3.007812 1.765625 -4.5625 L 1.765625 -13.03125 L 3.453125 -13.03125 L 3.453125 -4.5625 C 3.453125 -3.445312 3.726562 -2.601562 4.28125 -2.03125 C 4.832031 -1.457031 5.648438 -1.171875 6.734375 -1.171875 C 7.828125 -1.171875 8.644531 -1.457031 9.1875 -2.03125 C 9.738281 -2.601562 10.015625 -3.445312 10.015625 -4.5625 L 10.015625 -13.03125 L 11.703125 -13.03125 L 11.703125 -4.5625 C 11.703125 -3.007812 11.289062 -1.8125 10.46875 -0.96875 C 9.644531 -0.125 8.398438 0.296875 6.734375 0.296875 Z M 6.734375 0.296875 "/></g></g></g><g fill="#010101" fill-opacity="1"><g transform="translate(234.058114, 287.95044)"><g><path d="M 6.03125 -5.515625 L 3.5 -5.515625 L 3.5 0 L 1.84375 0 L 1.84375 -13.03125 L 6.390625 -13.03125 C 9.234375 -13.03125 10.65625 -11.769531 10.65625 -9.25 C 10.65625 -8.25 10.414062 -7.441406 9.9375 -6.828125 C 9.46875 -6.210938 8.753906 -5.816406 7.796875 -5.640625 L 11.296875 0 L 9.390625 0 Z M 3.5 -6.984375 L 6.390625 -6.984375 C 8.085938 -6.984375 8.941406 -7.738281 8.953125 -9.25 C 8.953125 -10.050781 8.738281 -10.632812 8.3125 -11 C 7.894531 -11.375 7.253906 -11.5625 6.390625 -11.5625 L 3.5 -11.5625 Z M 3.5 -6.984375 "/></g></g></g><g fill="#010101" fill-opacity="1"><g transform="translate(250.89521, 287.95044)"><g><path d="M 9.8125 -1.4375 L 9.8125 0 L 1.84375 0 L 1.84375 -13.03125 L 9.734375 -13.03125 L 9.734375 -11.578125 L 3.5 -11.578125 L 3.5 -7.265625 L 8.875 -7.265625 L 8.875 -5.828125 L 3.5 -5.828125 L 3.5 -1.4375 Z M 9.8125 -1.4375 "/></g></g></g></svg>